<svg id="Layer_1" data-name="Layer 1" xmlns="http://www.w3.org/2000/svg" viewBox="0 0 268 79"><title>corrado-logo</title><path d="M39.35.57A38.93,38.93,0,1,0,78.28,39.5,39,39,0,0,0,39.35.57Zm2.15,10c.29,0,.56.1.83.17a19,19,0,0,1,3,1,11.38,11.38,0,0,1,1.84,1,3.48,3.48,0,0,0,.72.44.69.69,0,0,0,.3-.18,6.35,6.35,0,0,0,.48-.44c.17-.17.35-.37.54-.6s.36-.46.52-.7h.44v9l-.48,0a13.3,13.3,0,0,0-1.47-3.6,12.36,12.36,0,0,0-2.37-2.92,13,13,0,0,0-3.38-2.23,9.68,9.68,0,0,0-1-.33Zm8.18,23h.46V45.94h-.46c-.21-.82-1.21-6.23-7.37-6.23h-.39v-.47h.41C48.44,39.24,49.58,34.23,49.68,33.59ZM33.82,41a11.33,11.33,0,0,0-3.6,3.16,14.92,14.92,0,0,0-2.28,4.56,18.17,18.17,0,0,0-.8,5.42,20.09,20.09,0,0,0,.76,5.7,14.77,14.77,0,0,0,2.2,4.74,10,10,0,0,0,3.52,2.86,9.47,9.47,0,0,0,1.47.56v.5a19.47,19.47,0,0,1-3.55-.77,13.54,13.54,0,0,1-5.06-2.88,12.58,12.58,0,0,1-3.16-4.64,16.32,16.32,0,0,1-1.1-6.14,15.38,15.38,0,0,1,.2-2.3,15.66,15.66,0,0,1,.7-2.74,15.33,15.33,0,0,1,1.4-2.92,14.2,14.2,0,0,1,2.26-2.8,14.58,14.58,0,0,1,7.6-3.83,17.81,17.81,0,0,1-2.72-.7,14.55,14.55,0,0,1-5.1-3,13,13,0,0,1-3.22-4.64,15.57,15.57,0,0,1-1-7.58,14.61,14.61,0,0,1,.36-2,16.54,16.54,0,0,1,.72-2.18,15.11,15.11,0,0,1,1.18-2.3,14.4,14.4,0,0,1,2.08-2.6,13.26,13.26,0,0,1,2.92-2.18,16.29,16.29,0,0,1,3.8-1.5,16.12,16.12,0,0,1,1.71-.34V11a8.92,8.92,0,0,0-1.31.6,11.37,11.37,0,0,0-3.62,3.28,18.49,18.49,0,0,0-3,10.51A17.3,17.3,0,0,0,28,30.8a13.35,13.35,0,0,0,2.34,4.38A11.11,11.11,0,0,0,34,38.12a9.68,9.68,0,0,0,2.12.75V32.2q0-.69,0-1.42c0-.49,0-.95-.08-1.38a7.12,7.12,0,0,0-.19-1.17,1.64,1.64,0,0,0-.37-.75,2.61,2.61,0,0,0-1.23-.79,16,16,0,0,0-1.69-.33V26h7.75V44.56c0,.72,0,.82,0,1.42s0,1.12,0,1.55q0,1.23.14,2.32a3.65,3.65,0,0,0,.44,1.63,2.18,2.18,0,0,0,1.17.82,9,9,0,0,0,2.4.37v.38H32.18v-.38a7.88,7.88,0,0,0,1.78-.5,3.65,3.65,0,0,0,1.36-1,1.71,1.71,0,0,0,.31-.67c.08-.29.15-.63.21-1A12.12,12.12,0,0,0,36,48.32c0-.42,0-.84,0-1.25s0-.84,0-1.46,0-.73,0-1.46,0-1.48,0-2.24V40.12A9,9,0,0,0,33.82,41ZM52.73,55.73a7.79,7.79,0,0,0-1.48.34,2.08,2.08,0,0,0-1.16.82,2.81,2.81,0,0,0-.32,1.36q0,.92,0,1.84v5.28a8.61,8.61,0,0,1-1.38.8,24.53,24.53,0,0,1-2.68,1.14,24.82,24.82,0,0,1-3.5,1l-.67.12v-.5A5.74,5.74,0,0,0,45,63.49a14.25,14.25,0,0,0,.16-2.16,20.36,20.36,0,0,0-.14-2.52A3.17,3.17,0,0,0,44.25,57,4.75,4.75,0,0,0,41,55.73v-.4H52.73Zm3.37-23.11c-1.05-1.3-3.37-6.14-9.28-6.14V26h7.05l2.61,6.45Z"/><path d="M108.5,21.66a7.67,7.67,0,0,0,6-3,.75.75,0,0,1,.6-.3.68.68,0,0,1,.47.17l.43.37a1.57,1.57,0,0,1,.69,1.12,1.39,1.39,0,0,1-.41.9,10.33,10.33,0,0,1-7.82,3.4c-5.06,0-9-3.45-9-8.17S103.39,8,108.5,8a10.19,10.19,0,0,1,7.78,3.38,1.48,1.48,0,0,1,.43.93,1.54,1.54,0,0,1-.69,1.12l-.43.34a.71.71,0,0,1-.47.19.78.78,0,0,1-.6-.32,7.62,7.62,0,0,0-6-3c-3.45,0-6.1,2.37-6.1,5.49S105,21.66,108.5,21.66Z"/><path d="M139.63,16.15c0,4.68-4,8.17-9.22,8.17s-9.22-3.49-9.22-8.17,4-8.14,9.22-8.14S139.63,11.49,139.63,16.15Zm-15.47,0c0,3.17,2.71,5.52,6.25,5.52s6.25-2.35,6.25-5.52-2.71-5.49-6.25-5.49S124.16,13,124.16,16.15Z"/><path d="M145.26,23.23V9.08A.72.72,0,0,1,146,8.3H156.1c3.75,0,5.58,1.94,5.58,4.89A4.66,4.66,0,0,1,157.61,18l4.48,4.91a.68.68,0,0,1,.24.5.62.62,0,0,1-.69.63h-1.79a1.27,1.27,0,0,1-1-.5L154,18.08h-5.88v5.15a.71.71,0,0,1-.78.78H146A.72.72,0,0,1,145.26,23.23Zm2.84-12.35v4.63H156a2.39,2.39,0,0,0,2.69-2.35c0-1.49-1.14-2.28-2.69-2.28Z"/><path d="M168.19,23.23V9.08a.72.72,0,0,1,.75-.78H179c3.75,0,5.58,1.94,5.58,4.89A4.66,4.66,0,0,1,180.54,18L185,22.89a.68.68,0,0,1,.24.5.62.62,0,0,1-.69.63h-1.79a1.27,1.27,0,0,1-1-.5l-4.83-5.43H171v5.15a.71.71,0,0,1-.78.78h-1.31A.72.72,0,0,1,168.19,23.23ZM171,10.89v4.63h7.89a2.39,2.39,0,0,0,2.69-2.35c0-1.49-1.14-2.28-2.69-2.28Z"/><path d="M199.24,8.3a1,1,0,0,1,1,.54l7.26,14.09a1,1,0,0,1,.13.45.63.63,0,0,1-.71.63h-1.44a1,1,0,0,1-1-.56l-1.59-3.21h-9.11l-1.59,3.21a.92.92,0,0,1-1,.56h-1.44a.61.61,0,0,1-.69-.62,1,1,0,0,1,.13-.45l7.26-14.09a1,1,0,0,1,.95-.54Zm-4.18,9.35h6.51l-3.23-6.51Z"/><path d="M212.48,23.23V9.06a.72.72,0,0,1,.78-.75h8.29c5.3,0,8.4,3.21,8.4,7.71,0,5.28-3.56,8-8.36,8h-8.34A.72.72,0,0,1,212.48,23.23Zm2.84-12.35V21.42h6.18c3.79,0,5.45-2.48,5.45-5.36,0-2.67-1.77-5.17-5.45-5.17Z"/><path d="M252.71,16.15c0,4.68-4,8.17-9.22,8.17s-9.22-3.49-9.22-8.17,4-8.14,9.22-8.14S252.71,11.49,252.71,16.15Zm-15.47,0c0,3.17,2.71,5.52,6.25,5.52s6.25-2.35,6.25-5.52-2.71-5.49-6.25-5.49S237.24,13,237.24,16.15Z"/><path d="M100.72,46.57V32.42a.72.72,0,0,1,.75-.78h13.92a.71.71,0,0,1,.78.78v1a.72.72,0,0,1-.78.8H103.56v3.86h8.34a.73.73,0,0,1,.8.78v1a.72.72,0,0,1-.8.78h-8.34v5.9a.71.71,0,0,1-.78.78h-1.31A.72.72,0,0,1,100.72,46.57Z"/><path d="M121.11,46.57V32.42a.72.72,0,0,1,.75-.78h1.31a.71.71,0,0,1,.78.78V46.57a.71.71,0,0,1-.78.78h-1.31A.72.72,0,0,1,121.11,46.57Z"/><path d="M133.69,36V46.57a.72.72,0,0,1-.78.78H131.6a.72.72,0,0,1-.75-.78V32.42a.71.71,0,0,1,.75-.78h1.23a1.24,1.24,0,0,1,1,.41l11,11V32.42a.73.73,0,0,1,.8-.78h1.29a.72.72,0,0,1,.75.78V46.57a.72.72,0,0,1-.75.78h-1.23a1.21,1.21,0,0,1-1-.41Z"/><path d="M162.67,31.64a1,1,0,0,1,1,.54l7.26,14.09a1,1,0,0,1,.13.45.63.63,0,0,1-.71.63h-1.44a1,1,0,0,1-1-.56l-1.59-3.21H157.2l-1.59,3.21a.92.92,0,0,1-1,.56h-1.44a.61.61,0,0,1-.69-.62,1,1,0,0,1,.13-.45l7.26-14.09a1,1,0,0,1,.95-.54ZM158.49,41H165l-3.23-6.51Z"/><path d="M178.75,36V46.57a.72.72,0,0,1-.78.78h-1.31a.72.72,0,0,1-.75-.78V32.42a.71.71,0,0,1,.75-.78h1.23a1.24,1.24,0,0,1,1,.41l11,11V32.42a.73.73,0,0,1,.8-.78h1.29a.72.72,0,0,1,.75.78V46.57a.72.72,0,0,1-.75.78h-1.23a1.21,1.21,0,0,1-1-.41Z"/><path d="M207.39,45a7.67,7.67,0,0,0,6-3,.75.75,0,0,1,.6-.3.68.68,0,0,1,.47.17l.43.37a1.57,1.57,0,0,1,.69,1.12,1.39,1.39,0,0,1-.41.9,10.33,10.33,0,0,1-7.82,3.4c-5.06,0-9-3.45-9-8.17s4-8.14,9.07-8.14a10.19,10.19,0,0,1,7.78,3.38,1.48,1.48,0,0,1,.43.93,1.54,1.54,0,0,1-.69,1.12l-.43.34a.71.71,0,0,1-.47.19.78.78,0,0,1-.6-.32,7.62,7.62,0,0,0-6-3c-3.45,0-6.1,2.37-6.1,5.49S203.94,45,207.39,45Z"/><path d="M221.38,46.57V32.42a.72.72,0,0,1,.75-.78h1.31a.71.71,0,0,1,.78.78V46.57a.71.71,0,0,1-.78.78h-1.31A.72.72,0,0,1,221.38,46.57Z"/><path d="M239.24,31.64a1,1,0,0,1,1,.54l7.26,14.09a1,1,0,0,1,.13.45.63.63,0,0,1-.71.63h-1.44a1,1,0,0,1-1-.56l-1.59-3.21h-9.11l-1.59,3.21a.92.92,0,0,1-1,.56h-1.44a.61.61,0,0,1-.69-.62,1,1,0,0,1,.13-.45l7.26-14.09a1,1,0,0,1,.95-.54ZM235.06,41h6.51l-3.23-6.51Z"/><path d="M252.47,46.57V32.42a.72.72,0,0,1,.75-.78h1.31a.71.71,0,0,1,.78.78V44.76h11.46a.73.73,0,0,1,.8.78v1a.73.73,0,0,1-.8.78H253.23A.72.72,0,0,1,252.47,46.57Z"/><path d="M108.65,71c-5.26,0-9.22-3.4-9.22-8.17s4.24-8.14,9.18-8.14a10.49,10.49,0,0,1,7.52,2.89,1.4,1.4,0,0,1,.45.88,1.44,1.44,0,0,1-.71,1.12l-.47.37a.8.8,0,0,1-.45.17.89.89,0,0,1-.65-.32,8,8,0,0,0-5.73-2.46c-3.53,0-6.16,2.28-6.16,5.47,0,3,2.43,5.54,6.23,5.54,3.12,0,5.26-1.66,5.93-3.9h-6.83a.74.74,0,0,1-.8-.8v-1a.73.73,0,0,1,.8-.78H117a.73.73,0,0,1,.8.78C117.78,67.15,114.23,71,108.65,71Z"/><path d="M123.3,69.91V55.75a.72.72,0,0,1,.75-.78h10.08c3.75,0,5.58,1.94,5.58,4.89a4.66,4.66,0,0,1-4.07,4.78l4.48,4.91a.68.68,0,0,1,.24.5.62.62,0,0,1-.69.63h-1.79a1.27,1.27,0,0,1-1-.5L132,64.76h-5.88v5.15a.71.71,0,0,1-.78.78h-1.31A.72.72,0,0,1,123.3,69.91Zm2.84-12.35V62.2H134a2.39,2.39,0,0,0,2.69-2.35c0-1.49-1.14-2.28-2.69-2.28Z"/><path d="M163.38,62.82c0,4.68-4,8.17-9.22,8.17s-9.22-3.49-9.22-8.17,4-8.14,9.22-8.14S163.38,58.17,163.38,62.82Zm-15.47,0c0,3.17,2.71,5.52,6.25,5.52s6.25-2.35,6.25-5.52-2.71-5.49-6.25-5.49S147.91,59.65,147.91,62.82Z"/><path d="M168.84,63.36V55.75a.72.72,0,0,1,.75-.78h1.29a.73.73,0,0,1,.8.78v7.61c0,3.86,2.22,5,5.08,5s5.11-1.12,5.11-5V55.75a.71.71,0,0,1,.78-.78H184a.72.72,0,0,1,.75.78v7.61c0,6-3.47,7.63-8,7.63S168.84,69.35,168.84,63.36Z"/><path d="M191.49,69.91V55.75a.72.72,0,0,1,.75-.78h10.08c3.75,0,5.58,1.94,5.58,4.89,0,2.69-1.83,4.91-5.6,4.91h-8v5.13a.71.71,0,0,1-.78.78h-1.31A.72.72,0,0,1,191.49,69.91Zm2.84-12.35V62.2h7.89a2.39,2.39,0,0,0,2.69-2.35c0-1.49-1.14-2.28-2.69-2.28Z"/></svg>