<svg id="Layer_1" data-name="Layer 1" xmlns="http://www.w3.org/2000/svg" viewBox="0 0 411 16"><title>corrado-wordmark</title><path d="M8.89,13.11a7.12,7.12,0,0,0,5.58-2.8A.7.7,0,0,1,15,10a.63.63,0,0,1,.44.16l.4.34a1.45,1.45,0,0,1,.64,1,1.29,1.29,0,0,1-.38.84,9.59,9.59,0,0,1-7.26,3.16c-4.7,0-8.4-3.2-8.4-7.58S4.15.43,8.89.43a9.47,9.47,0,0,1,7.22,3.14,1.37,1.37,0,0,1,.4.86,1.43,1.43,0,0,1-.64,1l-.4.32A.66.66,0,0,1,15,6a.72.72,0,0,1-.56-.3A7.07,7.07,0,0,0,8.89,2.89c-3.2,0-5.66,2.2-5.66,5.1S5.69,13.11,8.89,13.11Z"/><path d="M37.09,8c0,4.34-3.68,7.58-8.56,7.58S20,12.33,20,8,23.65.43,28.53.43,37.09,3.67,37.09,8ZM22.73,8c0,2.94,2.52,5.12,5.8,5.12s5.8-2.18,5.8-5.12-2.52-5.1-5.8-5.1S22.73,5,22.73,8Z"/><path d="M41.61,14.57V1.43a.67.67,0,0,1,.7-.72h9.36c3.48,0,5.18,1.8,5.18,4.54a4.32,4.32,0,0,1-3.78,4.44l4.16,4.56a.63.63,0,0,1,.22.46.57.57,0,0,1-.64.58H55.15a1.18,1.18,0,0,1-1-.46l-4.48-5H44.25v4.78a.66.66,0,0,1-.72.72H42.31A.67.67,0,0,1,41.61,14.57ZM44.25,3.11v4.3h7.32a2.22,2.22,0,0,0,2.5-2.18c0-1.38-1.06-2.12-2.5-2.12Z"/><path d="M62.21,14.57V1.43a.67.67,0,0,1,.7-.72h9.36c3.48,0,5.18,1.8,5.18,4.54a4.32,4.32,0,0,1-3.78,4.44l4.16,4.56a.63.63,0,0,1,.22.46.57.57,0,0,1-.64.58H75.75a1.18,1.18,0,0,1-1-.46l-4.48-5H64.85v4.78a.66.66,0,0,1-.72.72H62.91A.67.67,0,0,1,62.21,14.57ZM64.85,3.11v4.3h7.32a2.22,2.22,0,0,0,2.5-2.18c0-1.38-1.06-2.12-2.5-2.12Z"/><path d="M90.35.71a.91.91,0,0,1,.9.5L98,14.29a1,1,0,0,1,.12.42.58.58,0,0,1-.66.58H96.11a.89.89,0,0,1-.9-.52l-1.48-3H85.27l-1.48,3a.86.86,0,0,1-.9.52H81.55a.56.56,0,0,1-.64-.58.9.9,0,0,1,.12-.42L87.77,1.21a.9.9,0,0,1,.88-.5ZM86.47,9.39h6l-3-6Z"/><path d="M101.93,14.57V1.41a.67.67,0,0,1,.72-.7h7.7c4.92,0,7.8,3,7.8,7.16,0,4.9-3.3,7.42-7.76,7.42h-7.74A.67.67,0,0,1,101.93,14.57Zm2.64-11.46v9.78h5.74c3.52,0,5.06-2.3,5.06-5a4.67,4.67,0,0,0-5.06-4.8Z"/><path d="M138.59,8c0,4.34-3.68,7.58-8.56,7.58s-8.56-3.24-8.56-7.58S125.15.43,130,.43,138.59,3.67,138.59,8ZM124.23,8c0,2.94,2.52,5.12,5.8,5.12s5.8-2.18,5.8-5.12-2.52-5.1-5.8-5.1S124.23,5,124.23,8Z"/><path d="M152,14.57V1.43a.67.67,0,0,1,.7-.72h12.92a.66.66,0,0,1,.72.72v.94a.67.67,0,0,1-.72.74h-11V6.69h7.74a.68.68,0,0,1,.74.72v1a.67.67,0,0,1-.74.72h-7.74v5.48a.66.66,0,0,1-.72.72h-1.22A.67.67,0,0,1,152,14.57Z"/><path d="M170.27,14.57V1.43a.67.67,0,0,1,.7-.72h1.22a.66.66,0,0,1,.72.72V14.57a.66.66,0,0,1-.72.72H171A.67.67,0,0,1,170.27,14.57Z"/><path d="M181.27,4.71v9.86a.67.67,0,0,1-.72.72h-1.22a.67.67,0,0,1-.7-.72V1.43a.66.66,0,0,1,.7-.72h1.14a1.15,1.15,0,0,1,.92.38l10.18,10.2V1.43a.68.68,0,0,1,.74-.72h1.2a.67.67,0,0,1,.7.72V14.57a.67.67,0,0,1-.7.72h-1.14a1.13,1.13,0,0,1-.92-.38Z"/><path d="M207.47.71a.91.91,0,0,1,.9.5l6.74,13.08a1,1,0,0,1,.12.42.58.58,0,0,1-.66.58h-1.34a.89.89,0,0,1-.9-.52l-1.48-3h-8.46l-1.48,3a.86.86,0,0,1-.9.52h-1.34a.56.56,0,0,1-.64-.58.9.9,0,0,1,.12-.42l6.74-13.08a.9.9,0,0,1,.88-.5Zm-3.88,8.68h6l-3-6Z"/><path d="M221.69,4.71v9.86a.67.67,0,0,1-.72.72h-1.22a.67.67,0,0,1-.7-.72V1.43a.66.66,0,0,1,.7-.72h1.14a1.15,1.15,0,0,1,.92.38L232,11.29V1.43a.68.68,0,0,1,.74-.72h1.2a.67.67,0,0,1,.7.72V14.57a.67.67,0,0,1-.7.72h-1.14a1.13,1.13,0,0,1-.92-.38Z"/><path d="M247.57,13.11a7.12,7.12,0,0,0,5.58-2.8.7.7,0,0,1,.56-.28.63.63,0,0,1,.44.16l.4.34a1.45,1.45,0,0,1,.64,1,1.29,1.29,0,0,1-.38.84,9.59,9.59,0,0,1-7.26,3.16c-4.7,0-8.4-3.2-8.4-7.58S242.83.43,247.57.43a9.47,9.47,0,0,1,7.22,3.14,1.37,1.37,0,0,1,.4.86,1.43,1.43,0,0,1-.64,1l-.4.32a.66.66,0,0,1-.44.18.72.72,0,0,1-.56-.3,7.07,7.07,0,0,0-5.58-2.78c-3.2,0-5.66,2.2-5.66,5.1S244.37,13.11,247.57,13.11Z"/><path d="M259.85,14.57V1.43a.67.67,0,0,1,.7-.72h1.22a.66.66,0,0,1,.72.72V14.57a.66.66,0,0,1-.72.72h-1.22A.67.67,0,0,1,259.85,14.57Z"/><path d="M275.75.71a.91.91,0,0,1,.9.5l6.74,13.08a1,1,0,0,1,.12.42.58.58,0,0,1-.66.58h-1.34a.89.89,0,0,1-.9-.52l-1.48-3h-8.46l-1.48,3a.86.86,0,0,1-.9.52h-1.34a.56.56,0,0,1-.64-.58.9.9,0,0,1,.12-.42l6.74-13.08a.9.9,0,0,1,.88-.5Zm-3.88,8.68h6l-3-6Z"/><path d="M287.33,14.57V1.43a.67.67,0,0,1,.7-.72h1.22a.66.66,0,0,1,.72.72V12.89h10.64a.68.68,0,0,1,.74.72v1a.68.68,0,0,1-.74.72H288A.67.67,0,0,1,287.33,14.57Z"/><path d="M321.17,15.57c-4.88,0-8.56-3.16-8.56-7.58S316.55.43,321.13.43a9.74,9.74,0,0,1,7,2.68,1.3,1.3,0,0,1,.42.82,1.34,1.34,0,0,1-.66,1l-.44.34a.74.74,0,0,1-.42.16.83.83,0,0,1-.6-.3,7.44,7.44,0,0,0-5.32-2.28c-3.28,0-5.72,2.12-5.72,5.08,0,2.78,2.26,5.14,5.78,5.14,2.9,0,4.88-1.54,5.5-3.62h-6.34a.68.68,0,0,1-.74-.74v-.9a.68.68,0,0,1,.74-.72h8.6a.68.68,0,0,1,.74.72C329.65,12,326.35,15.57,321.17,15.57Z"/><path d="M334.07,14.57V1.43a.67.67,0,0,1,.7-.72h9.36c3.48,0,5.18,1.8,5.18,4.54a4.32,4.32,0,0,1-3.78,4.44l4.16,4.56a.63.63,0,0,1,.22.46.57.57,0,0,1-.64.58h-1.66a1.18,1.18,0,0,1-1-.46l-4.48-5h-5.46v4.78a.66.66,0,0,1-.72.72h-1.22A.67.67,0,0,1,334.07,14.57Zm2.64-11.46v4.3H344a2.22,2.22,0,0,0,2.5-2.18c0-1.38-1.06-2.12-2.5-2.12Z"/><path d="M370.59,8c0,4.34-3.68,7.58-8.56,7.58s-8.56-3.24-8.56-7.58S357.15.43,362,.43,370.59,3.67,370.59,8ZM356.23,8c0,2.94,2.52,5.12,5.8,5.12s5.8-2.18,5.8-5.12-2.52-5.1-5.8-5.1S356.23,5,356.23,8Z"/><path d="M375,8.49V1.43a.67.67,0,0,1,.7-.72h1.2a.68.68,0,0,1,.74.72V8.49c0,3.58,2.06,4.62,4.72,4.62s4.74-1,4.74-4.62V1.43a.66.66,0,0,1,.72-.72H389a.67.67,0,0,1,.7.72V8.49c0,5.56-3.22,7.08-7.38,7.08S375,14.05,375,8.49Z"/><path d="M395.29,14.57V1.43a.67.67,0,0,1,.7-.72h9.36c3.48,0,5.18,1.8,5.18,4.54,0,2.5-1.7,4.56-5.2,4.56h-7.4v4.76a.66.66,0,0,1-.72.72H396A.67.67,0,0,1,395.29,14.57Zm2.64-11.46v4.3h7.32a2.22,2.22,0,0,0,2.5-2.18c0-1.38-1.06-2.12-2.5-2.12Z"/></svg>