<svg id="Layer_1" data-name="Layer 1" xmlns="http://www.w3.org/2000/svg" viewBox="0 0 100 126"><defs><style>.cls-1{fill:#767676;}</style></defs><title>pdf</title><path class="cls-1" d="M80.35,82.09a15.44,15.44,0,0,1-6.17.15,29.81,29.81,0,0,1-7.79-2.32c4.61-.68,8.19-.47,11.24.61a12.21,12.21,0,0,1,2.72,1.56M54.64,77.86l-.55.15-3.61,1-1.57.4c-3.16.79-6.38,1.61-9.56,2.58,1.21-2.92,2.33-5.87,3.43-8.75.82-2.14,1.65-4.32,2.51-6.48.44.73.89,1.45,1.37,2.17a42.29,42.29,0,0,0,8,9M46.62,45a27.31,27.31,0,0,1-1.71,10.39C43.5,51.23,42.85,46.69,44.6,43a6.92,6.92,0,0,1,1.06-1.7,8,8,0,0,1,1,3.63M30.16,90.57c-.79,1.41-1.6,2.73-2.42,4-2,3-5.25,6.21-6.93,6.21a.84.84,0,0,1-.65-.33A.62.62,0,0,1,20,99.9c.06-1.11,1.52-3.07,3.64-4.89a34.82,34.82,0,0,1,6.57-4.44m55.52-8.33c-.25-3.67-6.44-6-6.5-6.06a23.68,23.68,0,0,0-8-1.26,47.17,47.17,0,0,0-10.94,1.49,38.25,38.25,0,0,1-9.78-10c-1.11-1.69-2.11-3.38-3-5,2.13-5.07,4-10.53,3.69-16.65-.28-4.9-2.49-8.19-5.49-8.19-2.07,0-3.84,1.52-5.29,4.54-2.57,5.38-1.9,12.25,2,20.46-1.4,3.31-2.71,6.74-4,10.06-1.57,4.13-3.2,8.39-5,12.44a44.23,44.23,0,0,0-12.86,7.52c-2.3,2-5.08,5-5.24,8.15a5.26,5.26,0,0,0,1.47,3.94,5.41,5.41,0,0,0,4,1.77c5,0,9.85-6.89,10.77-8.28a75.63,75.63,0,0,0,5.26-9.45C41.1,86.1,45.64,85,50,83.84l1.57-.4c1.19-.3,2.42-.64,3.68-1s2.71-.74,4.11-1.09A36.46,36.46,0,0,0,73.52,86.8c4,.58,7.53.24,9.93-1a3.65,3.65,0,0,0,2.23-3.55m9.72,31.61c0,6.73-5.93,7.14-7.13,7.16H11.72c-6.7,0-7.11-6-7.12-7.16V12.15C4.6,5.41,10.54,5,11.72,5H63.43l0,0V25.2c0,4.05,2.45,11.72,11.72,11.72h20l.17.17ZM90.65,32.32H75.18c-6.7,0-7.11-5.95-7.12-7.12V9.64ZM100,113.85V35.19L68.06,3.12V3h-.15L65.35.39H11.72C7.67.39,0,2.85,0,12.15v101.7c0,4.07,2.45,11.76,11.72,11.76H88.28c4,0,11.72-2.46,11.72-11.76"/></svg>