<svg id="Layer_1" data-name="Layer 1" xmlns="http://www.w3.org/2000/svg" viewBox="0 0 79 79"><title>favicon</title><path d="M42.42.15a4.5,4.5,0,0,1,1.13.23,25.86,25.86,0,0,1,4.08,1.36,15.49,15.49,0,0,1,2.5,1.36,4.74,4.74,0,0,0,1,.6.94.94,0,0,0,.41-.25,8.64,8.64,0,0,0,.65-.6q.35-.35.74-.82a11.49,11.49,0,0,0,.71-1h.6V13.34h-.65a18.1,18.1,0,0,0-2-4.9,16.82,16.82,0,0,0-3.23-4.1,17.69,17.69,0,0,0-4.6-3A13.18,13.18,0,0,0,42.38.86Z"/><path d="M53.55,31.46h.63V48.29h-.63c-.29-1.12-1.65-8.48-10-8.48H43v-.64h.56c8.33,0,9.87-6.82,10-7.69Z"/><path d="M32,41.57a15.42,15.42,0,0,0-4.9,4.3A20.31,20.31,0,0,0,24,52.08a24.73,24.73,0,0,0-1.09,7.38,27.35,27.35,0,0,0,1,7.76,20.1,20.1,0,0,0,3,6.45,13.61,13.61,0,0,0,4.79,3.89,12.89,12.89,0,0,0,2,.76V79a26.5,26.5,0,0,1-4.83-1A18.43,18.43,0,0,1,22,74a17.12,17.12,0,0,1-4.3-6.32,22.21,22.21,0,0,1-1.5-8.36,20.93,20.93,0,0,1,.27-3.13,21.32,21.32,0,0,1,1-3.73,20.87,20.87,0,0,1,1.91-4,19.33,19.33,0,0,1,3.08-3.81A19.85,19.85,0,0,1,32.77,39.5a24.24,24.24,0,0,1-3.7-1,19.8,19.8,0,0,1-6.94-4.08,17.69,17.69,0,0,1-4.38-6.32,21.19,21.19,0,0,1-1.36-10.32,19.89,19.89,0,0,1,.49-2.72,22.51,22.51,0,0,1,1-3A20.57,20.57,0,0,1,19.46,9a19.6,19.6,0,0,1,2.83-3.54,18,18,0,0,1,4-3,22.17,22.17,0,0,1,5.17-2A21.94,21.94,0,0,1,33.76,0V.73A12.14,12.14,0,0,0,32,1.55,15.48,15.48,0,0,0,27.05,6,25.17,25.17,0,0,0,23,20.32a23.55,23.55,0,0,0,1.12,7.35,18.17,18.17,0,0,0,3.19,6,15.12,15.12,0,0,0,5,4,13.18,13.18,0,0,0,2.89,1v-11a10.41,10.41,0,0,0-.11-1.88,9.69,9.69,0,0,0-.33-1.59,2.23,2.23,0,0,0-.5-1,3.55,3.55,0,0,0-1.67-1.08,21.78,21.78,0,0,0-2.3-.45v-.49H40.8V50.46A24.82,24.82,0,0,0,41,53.61a5,5,0,0,0,.54,2.23A3,3,0,0,0,43.13,57a12.25,12.25,0,0,0,3.27.5V58H29.74v-.52a10.73,10.73,0,0,0,2.42-.68A5,5,0,0,0,34,55.43a2.33,2.33,0,0,0,.42-.91,13.12,13.12,0,0,0,.29-1.36,16.5,16.5,0,0,0,.18-1.65V40.37A12.25,12.25,0,0,0,32,41.57Z"/><path d="M57.71,61.62a10.6,10.6,0,0,0-2,.46,2.83,2.83,0,0,0-1.58,1.12A3.82,3.82,0,0,0,53.68,65v9.69a11.72,11.72,0,0,1-1.88,1.09,33.39,33.39,0,0,1-3.65,1.55,33.78,33.78,0,0,1-4.76,1.36l-.91.16v-.68a7.81,7.81,0,0,0,4.83-6,19.4,19.4,0,0,0,.22-2.94,27.71,27.71,0,0,0-.19-3.43,4.31,4.31,0,0,0-1.17-2.49,6.47,6.47,0,0,0-4.41-1.69v-.54h16Z"/><path d="M62.29,30.16c-1.43-1.77-4.59-8.36-12.63-8.36v-.65h9.57l3.55,8.78Z"/></svg>